<svg width="764" height="179" viewBox="0 0 764 179" fill="none" xmlns="http://www.w3.org/2000/svg">
  <rect x="58" y="29" width="143" height="121" rx="31" fill="#143E4A"/>
  <path d="M93 70C113 49 149 44 173 56C151 61 134 72 121 89C105 110 85 120 64 119C71 106 80 84 93 70Z" fill="#F8FAFC" fill-opacity="0.96"/>
  <path d="M100 111C119 91 144 80 177 79C169 93 158 105 144 114C124 126 101 129 75 123C83 121 91 117 100 111Z" fill="#F8FAFC" fill-opacity="0.82"/>
  <text x="251" y="117" fill="#FAF9F6" font-family="Inter, SF Pro Display, Arial, sans-serif" font-size="76" font-weight="700" letter-spacing="0">Slipstream</text>
</svg>
